<svg width="11" height="12" viewBox="0 0 11 12" fill="none" xmlns="http://www.w3.org/2000/svg">
<path d="M7.48079 1.64215C8.09041 0.673042 9.27153 0.910756 9.96041 1.62858C10.6493 2.34641 10.7514 3.41936 10.0336 4.10823M10.0336 4.10823C10.474 5.28036 10.474 6.57249 10.0336 7.74462C8.90578 10.7135 5.69308 10.4788 5.69308 10.4788C5.69308 10.4788 2.48038 10.7135 1.35259 7.74462C0.913306 6.57229 0.9133 5.28055 1.35258 4.10822M10.0336 4.10823C8.90578 1.13938 5.69308 1.37561 5.69308 1.37561C5.69308 1.37561 2.48038 1.13937 1.35258 4.10822M3.89925 1.64423C3.13723 0.825418 2.06429 0.855918 1.37694 1.57375C0.689596 2.29157 0.634751 3.41935 1.35258 4.10822M8.36806 9.7972L9.2883 11M3.01928 9.79792L2.09783 11M5.69306 3.84915V5.13849C5.69322 5.38395 5.74981 5.62611 5.85842 5.84623C5.96702 6.06635 6.12472 6.25857 6.31943 6.40804L7.61033 7.39714" stroke="#EC888D" stroke-width="0.762026" stroke-linecap="round" stroke-linejoin="round"/>
</svg>
